<svg width="30" height="30" viewBox="0 0 30 30" fill="none" xmlns="http://www.w3.org/2000/svg">
<path d="M0 12C0 5.37258 5.37258 0 12 0H18C24.6274 0 30 5.37258 30 12V18C30 24.6274 24.6274 30 18 30H12C5.37258 30 0 24.6274 0 18V12Z" fill="#0075FF"/>
<g clip-path="url(#clip0_580_2363)">
<path d="M15.1629 10.4675C15.1193 10.4258 15.0612 10.4025 15.0009 10.4025C14.9405 10.4025 14.8825 10.4258 14.8389 10.4675L9.44531 15.6199C9.42241 15.6418 9.40418 15.6682 9.39175 15.6973C9.37931 15.7265 9.37291 15.7578 9.37295 15.7895L9.37207 20.6253C9.37207 20.8739 9.47084 21.1124 9.64666 21.2882C9.82247 21.464 10.0609 21.5628 10.3096 21.5628H13.125C13.2493 21.5628 13.3685 21.5134 13.4565 21.4255C13.5444 21.3376 13.5937 21.2184 13.5937 21.094V17.1097C13.5937 17.0475 13.6184 16.9879 13.6624 16.9439C13.7063 16.9 13.766 16.8753 13.8281 16.8753H16.1719C16.234 16.8753 16.2936 16.9 16.3376 16.9439C16.3816 16.9879 16.4062 17.0475 16.4062 17.1097V21.094C16.4062 21.2184 16.4556 21.3376 16.5435 21.4255C16.6314 21.5134 16.7507 21.5628 16.875 21.5628H19.6893C19.9379 21.5628 20.1764 21.464 20.3522 21.2882C20.528 21.1124 20.6268 20.8739 20.6268 20.6253V15.7895C20.6268 15.7578 20.6204 15.7265 20.608 15.6973C20.5955 15.6682 20.5773 15.6418 20.5544 15.6199L15.1629 10.4675Z" fill="white"/>
<path d="M21.8821 14.6537L19.6907 12.5572V9.37585C19.6907 9.25153 19.6413 9.13231 19.5534 9.0444C19.4655 8.95649 19.3463 8.9071 19.222 8.9071H17.8157C17.6914 8.9071 17.5722 8.95649 17.4843 9.0444C17.3964 9.13231 17.347 9.25153 17.347 9.37585V10.3134L15.6501 8.69089C15.4913 8.53035 15.2552 8.43835 15 8.43835C14.7457 8.43835 14.5102 8.53035 14.3514 8.69119L8.11993 14.6531C7.93771 14.8289 7.91485 15.118 8.08068 15.3085C8.12232 15.3565 8.1733 15.3956 8.23053 15.4234C8.28776 15.4511 8.35003 15.4669 8.41356 15.4698C8.47709 15.4727 8.54054 15.4627 8.60006 15.4403C8.65958 15.4179 8.71392 15.3836 8.75978 15.3395L14.8389 9.53054C14.8825 9.48882 14.9405 9.46553 15.0009 9.46553C15.0612 9.46553 15.1193 9.48882 15.1629 9.53054L21.2426 15.3395C21.3321 15.4254 21.4521 15.4723 21.5762 15.4699C21.7002 15.4674 21.8183 15.4159 21.9044 15.3266C22.0843 15.1403 22.0693 14.8327 21.8821 14.6537Z" fill="white"/>
</g>
<defs>
<clipPath id="clip0_580_2363">
<rect width="15" height="15" fill="white" transform="translate(7.5 7.5)"/>
</clipPath>
</defs>
</svg>
