<svg width="56" height="56" viewBox="0 0 56 56" fill="none" xmlns="http://www.w3.org/2000/svg">
<g filter="url(#filter0_d_580_4219)">
<rect x="5.5" y="2" width="45" height="45" rx="12" fill="#3d0adc"/>
</g>
<path d="M23.0781 14.6682H27.1211C27.1646 14.6682 27.2065 14.6853 27.2373 14.7161C27.2681 14.7468 27.2852 14.7888 27.2852 14.8323V20.9846C27.2852 21.5472 27.5085 22.0868 27.9062 22.4846C28.304 22.8824 28.8437 23.1057 29.4062 23.1057H35.5586C35.6021 23.1057 35.644 23.1228 35.6748 23.1536C35.7056 23.1843 35.7227 23.2263 35.7227 23.2698V31.5315C35.7227 32.2743 35.4276 32.9867 34.9023 33.512C34.3771 34.0372 33.6647 34.3323 32.9219 34.3323H23.0781C22.3353 34.3323 21.6229 34.0372 21.0977 33.512C20.5724 32.9867 20.2773 32.2743 20.2773 31.5315V17.469C20.2773 16.7262 20.5724 16.0138 21.0977 15.4885C21.6229 14.9633 22.3353 14.6682 23.0781 14.6682ZM24.4844 28.7073C24.2948 28.7073 24.1126 28.7822 23.9785 28.9163C23.8445 29.0503 23.7695 29.2325 23.7695 29.4221C23.7695 29.6117 23.8445 29.7939 23.9785 29.928C24.1126 30.062 24.2948 30.137 24.4844 30.137H31.5156C31.7052 30.137 31.8874 30.062 32.0215 29.928C32.1555 29.7939 32.2305 29.6117 32.2305 29.4221C32.2305 29.2325 32.1555 29.0503 32.0215 28.9163C31.8874 28.7822 31.7052 28.7073 31.5156 28.7073H24.4844ZM24.4844 25.1917C24.2948 25.1917 24.1126 25.2666 23.9785 25.4006C23.8445 25.5347 23.7695 25.7169 23.7695 25.9065C23.7695 26.0961 23.8445 26.2783 23.9785 26.4124C24.1126 26.5464 24.2948 26.6213 24.4844 26.6213H31.5156C31.7052 26.6213 31.8874 26.5464 32.0215 26.4124C32.1555 26.2783 32.2305 26.0961 32.2305 25.9065C32.2305 25.7169 32.1555 25.5347 32.0215 25.4006C31.8874 25.2666 31.7052 25.1917 31.5156 25.1917H24.4844Z" fill="white" stroke="#3d0adc" stroke-width="0.0234375"/>
<path d="M28.8057 15.2064L28.8447 15.2278L35.1641 21.5472C35.1747 21.5578 35.1826 21.5715 35.1855 21.5862C35.1884 21.6009 35.1864 21.6163 35.1807 21.6302C35.1749 21.6439 35.1656 21.656 35.1533 21.6644C35.1409 21.6727 35.1254 21.677 35.1104 21.6771H29.4062C29.2229 21.6771 29.0467 21.6046 28.917 21.4749C28.7874 21.3453 28.7148 21.169 28.7148 20.9857V15.2816L28.7275 15.2396C28.7359 15.2272 28.7479 15.217 28.7617 15.2112C28.7755 15.2055 28.791 15.2035 28.8057 15.2064Z" fill="white" stroke="#3d0adc" stroke-width="0.0234375"/>
<defs>
<filter id="filter0_d_580_4219" x="-4.76837e-07" y="-2.38419e-07" width="56" height="56" filterUnits="userSpaceOnUse" color-interpolation-filters="sRGB">
<feFlood flood-opacity="0" result="BackgroundImageFix"/>
<feColorMatrix in="SourceAlpha" type="matrix" values="0 0 0 0 0 0 0 0 0 0 0 0 0 0 0 0 0 0 127 0" result="hardAlpha"/>
<feOffset dy="3.5"/>
<feGaussianBlur stdDeviation="2.75"/>
<feColorMatrix type="matrix" values="0 0 0 0 0 0 0 0 0 0 0 0 0 0 0 0 0 0 0.02 0"/>
<feBlend mode="normal" in2="BackgroundImageFix" result="effect1_dropShadow_580_4219"/>
<feBlend mode="normal" in="SourceGraphic" in2="effect1_dropShadow_580_4219" result="shape"/>
</filter>
</defs>
</svg>
