<svg width="56" height="56" viewBox="0 0 56 56" fill="none" xmlns="http://www.w3.org/2000/svg">
<g filter="url(#filter0_d_580_4237)">
<rect x="5.5" y="2" width="45" height="45" rx="12" fill="#3d0adc"/>
</g>
<path d="M20.9464 17.8182H35.0089C35.1732 17.8181 35.3373 17.8285 35.5002 17.8494C35.445 17.4617 35.3118 17.0892 35.1088 16.7543C34.9057 16.4195 34.6369 16.1292 34.3186 15.9011C34.0003 15.6729 33.6391 15.5116 33.2568 15.4268C32.8745 15.342 32.4789 15.3356 32.094 15.4078L20.529 17.3822H20.5158C19.7898 17.521 19.1443 17.9318 18.7109 18.5305C19.3638 18.0662 20.1453 17.8171 20.9464 17.8182V17.8182Z" fill="white"/>
<path d="M35.0093 18.8749H20.9468C20.2011 18.8757 19.4862 19.1723 18.9589 19.6995C18.4317 20.2268 18.1351 20.9417 18.1343 21.6874V30.1249C18.1351 30.8705 18.4317 31.5854 18.9589 32.1127C19.4862 32.64 20.2011 32.9366 20.9468 32.9374H35.0093C35.7549 32.9366 36.4698 32.64 36.9971 32.1127C37.5244 31.5854 37.821 30.8705 37.8218 30.1249V21.6874C37.821 20.9417 37.5244 20.2268 36.9971 19.6995C36.4698 19.1723 35.7549 18.8757 35.0093 18.8749V18.8749ZM32.9219 27.3124C32.6437 27.3124 32.3719 27.2299 32.1406 27.0754C31.9093 26.9209 31.7291 26.7012 31.6227 26.4443C31.5162 26.1873 31.4884 25.9046 31.5426 25.6318C31.5969 25.359 31.7308 25.1084 31.9275 24.9118C32.1242 24.7151 32.3747 24.5812 32.6475 24.5269C32.9203 24.4726 33.2031 24.5005 33.46 24.6069C33.717 24.7134 33.9366 24.8936 34.0911 25.1249C34.2456 25.3561 34.3281 25.628 34.3281 25.9061C34.3281 26.2791 34.18 26.6368 33.9162 26.9005C33.6525 27.1642 33.2948 27.3124 32.9219 27.3124Z" fill="white"/>
<path d="M18.1562 24.6514V20.2788C18.1562 19.3265 18.6836 17.73 20.5139 17.3841C22.0674 17.0928 23.6055 17.0928 23.6055 17.0928C23.6055 17.0928 24.6162 17.7959 23.7812 17.7959C22.9463 17.7959 22.9683 18.8726 23.7812 18.8726C24.5942 18.8726 23.7812 19.9053 23.7812 19.9053L20.5073 23.6187L18.1562 24.6514Z" fill="white"/>
<defs>
<filter id="filter0_d_580_4237" x="-4.76837e-07" y="-2.38419e-07" width="56" height="56" filterUnits="userSpaceOnUse" color-interpolation-filters="sRGB">
<feFlood flood-opacity="0" result="BackgroundImageFix"/>
<feColorMatrix in="SourceAlpha" type="matrix" values="0 0 0 0 0 0 0 0 0 0 0 0 0 0 0 0 0 0 127 0" result="hardAlpha"/>
<feOffset dy="3.5"/>
<feGaussianBlur stdDeviation="2.75"/>
<feColorMatrix type="matrix" values="0 0 0 0 0 0 0 0 0 0 0 0 0 0 0 0 0 0 0.02 0"/>
<feBlend mode="normal" in2="BackgroundImageFix" result="effect1_dropShadow_580_4237"/>
<feBlend mode="normal" in="SourceGraphic" in2="effect1_dropShadow_580_4237" result="shape"/>
</filter>
</defs>
</svg>
