<svg width="42" height="41" viewBox="0 0 42 41" fill="none" xmlns="http://www.w3.org/2000/svg">
<g filter="url(#filter0_d_580_2363)">
<rect x="6" y="2" width="30" height="30" rx="12" fill="#1A1F37"/>
</g>
<path d="M23.2453 11.3917C22.6752 10.7762 21.8789 10.4373 21 10.4373C20.1164 10.4373 19.3175 10.7742 18.75 11.3859C18.1764 12.0043 17.8969 12.8449 17.9625 13.7525C18.0926 15.5431 19.4552 16.9998 21 16.9998C22.5449 16.9998 23.9051 15.5434 24.0372 13.7531C24.1037 12.8537 23.8225 12.0149 23.2453 11.3917Z" fill="#0075FF"/>
<path d="M26.1564 23.5616H15.8439C15.7089 23.5634 15.5753 23.535 15.4526 23.4786C15.33 23.4222 15.2214 23.3392 15.1349 23.2355C14.9445 23.0079 14.8677 22.6971 14.9246 22.3827C15.1718 21.011 15.9435 19.8588 17.1564 19.0499C18.234 18.3318 19.5989 17.9366 21.0002 17.9366C22.4014 17.9366 23.7664 18.3321 24.8439 19.0499C26.0568 19.8585 26.8285 21.0107 27.0757 22.3824C27.1326 22.6968 27.0558 23.0076 26.8654 23.2352C26.7789 23.3389 26.6704 23.422 26.5478 23.4785C26.4251 23.5349 26.2914 23.5633 26.1564 23.5616Z" fill="#0075FF"/>
<defs>
<filter id="filter0_d_580_2363" x="0.5" y="-2.38419e-07" width="41" height="41" filterUnits="userSpaceOnUse" color-interpolation-filters="sRGB">
<feFlood flood-opacity="0" result="BackgroundImageFix"/>
<feColorMatrix in="SourceAlpha" type="matrix" values="0 0 0 0 0 0 0 0 0 0 0 0 0 0 0 0 0 0 127 0" result="hardAlpha"/>
<feOffset dy="3.5"/>
<feGaussianBlur stdDeviation="2.75"/>
<feColorMatrix type="matrix" values="0 0 0 0 0 0 0 0 0 0 0 0 0 0 0 0 0 0 0.02 0"/>
<feBlend mode="normal" in2="BackgroundImageFix" result="effect1_dropShadow_580_2363"/>
<feBlend mode="normal" in="SourceGraphic" in2="effect1_dropShadow_580_2363" result="shape"/>
</filter>
</defs>
</svg>
