<svg width="290" height="289" viewBox="0 0 290 289" fill="none" xmlns="http://www.w3.org/2000/svg">
<path d="M231.35 194.854C234.359 196.592 238.225 195.568 239.781 192.461C247.146 177.754 251 161.506 251 145C251 128.494 247.146 112.246 239.781 97.5387C238.225 94.4319 234.359 93.4083 231.35 95.1456C228.341 96.8829 227.331 100.722 228.862 103.841C235.136 116.626 238.417 130.703 238.417 145C238.417 159.297 235.136 173.374 228.862 186.158C227.331 189.278 228.341 193.117 231.35 194.854Z" fill="#22234B"/>
<path d="M237.24 107.14C240.455 105.82 242.008 102.135 240.5 99.0048C233.869 85.2368 224.328 73.0416 212.508 63.2776C199.069 52.1757 183.099 44.5595 166.013 41.1038C148.927 37.648 131.253 38.4594 114.555 43.4659C97.858 48.4724 82.653 57.5196 70.2873 69.806C57.9215 82.0925 48.7768 97.2389 43.663 113.904C38.5492 130.569 37.6242 148.237 40.97 165.345C44.3157 182.453 51.829 198.471 62.8442 211.982C72.532 223.864 84.6656 233.484 98.3906 240.203C101.511 241.731 105.206 240.201 106.546 236.996C107.886 233.79 106.362 230.124 103.254 228.571C91.4327 222.666 80.9762 214.309 72.5963 204.031C62.8886 192.124 56.2672 178.007 53.3185 162.93C50.3699 147.853 51.1851 132.282 55.6919 117.595C60.1987 102.908 68.2579 89.5598 79.1558 78.7318C90.0537 67.9038 103.454 59.9305 118.169 55.5183C132.884 51.1061 148.461 50.391 163.519 53.4366C178.576 56.4821 192.65 63.1942 204.494 72.9783C214.719 81.4241 223.008 91.9342 228.837 103.793C230.37 106.911 234.026 108.459 237.24 107.14Z" fill="url(#paint0_linear_580_4166)"/>
<defs>
<linearGradient id="paint0_linear_580_4166" x1="125.5" y1="51.5" x2="42.5" y2="159.5" gradientUnits="userSpaceOnUse">
<stop stop-color="#3d0adc"/>
<stop offset="1" stop-color="#3d0adc" stop-opacity="0"/>
</linearGradient>
</defs>
</svg>
