<svg width="42" height="41" viewBox="0 0 42 41" fill="none" xmlns="http://www.w3.org/2000/svg">
<g filter="url(#filter0_d_580_2363)">
<rect x="6" y="2" width="30" height="30" rx="12" fill="#1A1F37"/>
</g>
<path d="M27.4933 10.6215C27.4879 10.5956 27.4753 10.5718 27.4569 10.5528C27.4384 10.5338 27.415 10.5204 27.3892 10.5143C25.6733 10.0948 21.7086 11.5898 19.5605 13.737C19.1774 14.117 18.8281 14.5297 18.5167 14.9704C17.8543 14.9118 17.1919 14.9607 16.6273 15.2068C15.0345 15.9079 14.5707 17.7372 14.4415 18.5241C14.4342 18.5671 14.4369 18.6113 14.4496 18.6531C14.4622 18.695 14.4844 18.7333 14.5143 18.7651C14.5443 18.7969 14.5812 18.8213 14.6222 18.8364C14.6632 18.8515 14.7072 18.8569 14.7506 18.8522L17.3085 18.5701C17.3103 18.7629 17.322 18.9555 17.3434 19.1472C17.3562 19.2803 17.4153 19.4047 17.5103 19.4988L18.5009 20.487C18.595 20.5819 18.7194 20.6409 18.8524 20.654C19.043 20.6753 19.2346 20.6869 19.4264 20.6888L19.1457 23.2435C19.141 23.2869 19.1465 23.3308 19.1616 23.3718C19.1767 23.4128 19.2011 23.4497 19.2329 23.4796C19.2647 23.5095 19.303 23.5317 19.3448 23.5444C19.3866 23.557 19.4308 23.5598 19.4738 23.5526C20.2593 23.4266 22.0918 22.9628 22.7888 21.37C23.0349 20.8054 23.0852 20.1462 23.0284 19.4871C23.4702 19.1756 23.8839 18.8262 24.265 18.4429C26.4198 16.299 27.9063 12.4227 27.4933 10.6215ZM22.1152 15.8853C21.9185 15.6887 21.7844 15.4381 21.7301 15.1653C21.6758 14.8925 21.7036 14.6097 21.81 14.3527C21.9164 14.0957 22.0966 13.876 22.3279 13.7214C22.5592 13.5669 22.8311 13.4844 23.1093 13.4844C23.3874 13.4844 23.6594 13.5669 23.8906 13.7214C24.1219 13.876 24.3022 14.0957 24.4086 14.3527C24.515 14.6097 24.5428 14.8925 24.4884 15.1653C24.4341 15.4381 24.3001 15.6887 24.1033 15.8853C23.9728 16.016 23.8179 16.1196 23.6473 16.1903C23.4768 16.2611 23.2939 16.2975 23.1093 16.2975C22.9246 16.2975 22.7418 16.2611 22.5712 16.1903C22.4007 16.1196 22.2457 16.016 22.1152 15.8853Z" fill="#3d0adc"/>
<path d="M18.4336 21.2028C18.273 21.3636 18.0155 21.4263 17.7056 21.4799C17.0092 21.5986 16.3942 20.9968 16.5193 20.2928C16.5671 20.0259 16.7083 19.6518 16.7962 19.5639C16.8154 19.5451 16.8282 19.5207 16.8327 19.4941C16.8373 19.4676 16.8334 19.4403 16.8215 19.4162C16.8097 19.392 16.7905 19.3722 16.7668 19.3595C16.743 19.3469 16.7159 19.342 16.6893 19.3457C16.2998 19.3933 15.9375 19.5699 15.6601 19.8472C14.9713 20.5366 14.9062 23.0945 14.9062 23.0945C14.9062 23.0945 17.4656 23.0294 18.1544 22.3401C18.4326 22.0628 18.6094 21.7 18.6562 21.31C18.6671 21.1875 18.518 21.1146 18.4336 21.2028Z" fill="#3d0adc"/>
<defs>
<filter id="filter0_d_580_2363" x="0.5" y="-2.38419e-07" width="41" height="41" filterUnits="userSpaceOnUse" color-interpolation-filters="sRGB">
<feFlood flood-opacity="0" result="BackgroundImageFix"/>
<feColorMatrix in="SourceAlpha" type="matrix" values="0 0 0 0 0 0 0 0 0 0 0 0 0 0 0 0 0 0 127 0" result="hardAlpha"/>
<feOffset dy="3.5"/>
<feGaussianBlur stdDeviation="2.75"/>
<feColorMatrix type="matrix" values="0 0 0 0 0 0 0 0 0 0 0 0 0 0 0 0 0 0 0.02 0"/>
<feBlend mode="normal" in2="BackgroundImageFix" result="effect1_dropShadow_580_2363"/>
<feBlend mode="normal" in="SourceGraphic" in2="effect1_dropShadow_580_2363" result="shape"/>
</filter>
</defs>
</svg>
